# xmcd
#
# Track frame offsets:
#	150
#	17962
#	35511
#	47040
#	58852
#	77834
#	92327
#	105368
#	118542
#	133832
#	147088
#	160875
#	170040
#
# Disc length: 2476 seconds
#
# Revision: 0
# Processed by: cddbd v1.4PL0 Copyright (c) Steve Scherf et al.
# Submitted via: EasyCDDAExtractor 4.6.0.1
#
DISCID=ab09aa0d
DTITLE=Bill Wharton and the Ingredients - Recipes
DYEAR=1999
DGENRE=Blues
TTITLE0=She's a Monkey
TTITLE1=Ten Foot Pole
TTITLE2=Litle Brother
TTITLE3=All 'Round Man
TTITLE4=Unplug the Blues
TTITLE5=Your Maytag Done Broke Down
TTITLE6=She's Mine
TTITLE7=Big Bang Theory
TTITLE8=Take This Hammer
TTITLE9=Hangin' With the Band
TTITLE10=Smackers
TTITLE11=The Cyber Blues
TTITLE12=It's Always Twilight Time
EXTD=
EXTT0=
EXTT1=
EXTT2=
EXTT3=
EXTT4=
EXTT5=
EXTT6=
EXTT7=
EXTT8=
EXTT9=
EXTT10=
EXTT11=
EXTT12=
PLAYORDER=
